<svg width="56" height="56" viewBox="0 0 56 56" fill="none" xmlns="http://www.w3.org/2000/svg">
<path d="M27.9998 51.3334C15.1128 51.3334 4.6665 40.8871 4.6665 28.0001C4.6665 15.1131 15.1128 4.66675 27.9998 4.66675C40.8868 4.66675 51.3332 15.1131 51.3332 28.0001C51.3332 40.8871 40.8868 51.3334 27.9998 51.3334ZM27.9998 46.6668C32.9505 46.6668 37.6985 44.7001 41.1992 41.1994C44.6998 37.6987 46.6665 32.9508 46.6665 28.0001C46.6665 23.0494 44.6998 18.3014 41.1992 14.8008C37.6985 11.3001 32.9505 9.33342 27.9998 9.33342C23.0491 9.33342 18.3012 11.3001 14.8005 14.8008C11.2998 18.3014 9.33317 23.0494 9.33317 28.0001C9.33317 32.9508 11.2998 37.6987 14.8005 41.1994C18.3012 44.7001 23.0491 46.6668 27.9998 46.6668ZM24.7845 19.6351L36.1688 27.2231C36.2969 27.3083 36.4018 27.4238 36.4745 27.5593C36.5471 27.6949 36.5851 27.8463 36.5851 28.0001C36.5851 28.1539 36.5471 28.3053 36.4745 28.4408C36.4018 28.5764 36.2969 28.6919 36.1688 28.7771L24.7822 36.3651C24.6418 36.4582 24.4788 36.5115 24.3105 36.5194C24.1423 36.5274 23.975 36.4896 23.8265 36.4102C23.6779 36.3308 23.5536 36.2127 23.4668 36.0683C23.3799 35.924 23.3338 35.7589 23.3332 35.5904V20.4097C23.3335 20.2409 23.3796 20.0754 23.4665 19.9307C23.5535 19.786 23.6781 19.6676 23.827 19.5881C23.9759 19.5086 24.1436 19.471 24.3123 19.4793C24.4809 19.4875 24.6441 19.5414 24.7845 19.6351Z" fill="white"/>
</svg>
