<svg width="40" height="40" viewBox="0 0 40 40" fill="none" xmlns="http://www.w3.org/2000/svg">
<g clip-path="url(#clip0_893_984)">
<path d="M39.4887 12.2983L27.7019 0.511381C27.2206 0.0299753 26.503 -0.127056 25.8642 0.10896C25.2256 0.345131 24.7828 0.931537 24.7307 1.61044L23.7979 13.7365L17.7893 19.7451L16.0754 18.0311C15.3946 17.3504 14.2906 17.3504 13.6097 18.0311C12.9289 18.7119 12.9289 19.8159 13.6097 20.4968L15.3236 22.2106L11.8959 25.6384L10.1821 23.9246C9.50147 23.2436 8.39748 23.2438 7.71647 23.9246C7.03561 24.6054 7.03561 25.7092 7.71647 26.3902L9.43029 28.1042L3.21624 34.3182L2.97578 34.0778C2.295 33.397 1.19101 33.397 0.510155 34.0778C-0.170703 34.7585 -0.170703 35.8625 0.510155 36.5434L1.98351 38.0167L3.45687 39.4901C3.79734 39.8305 4.24351 40.0007 4.6896 40.0007C5.13585 40.0007 5.58202 39.8303 5.92233 39.49C6.60319 38.8092 6.60319 37.7053 5.92233 37.0244L5.68186 36.7839L9.31569 33.1501C9.60834 33.9215 10.0622 34.6295 10.6632 35.2304C11.7796 36.3467 13.264 36.9616 14.8427 36.9616C16.4215 36.9616 17.9057 36.3467 19.022 35.2304L24.9158 29.3369C27.2202 27.0323 27.2202 23.2823 24.9156 20.9777C24.3146 20.377 23.6066 19.9232 22.8353 19.6304L26.2635 16.2022L38.3896 15.2695C39.0685 15.2173 39.6549 14.7746 39.8911 14.136C40.1273 13.4973 39.9702 12.7798 39.4887 12.2983ZM22.4502 26.8713L16.5564 32.7646C16.0986 33.2225 15.49 33.4746 14.8428 33.4746C14.1954 33.4746 13.5865 33.2225 13.1288 32.7646C12.6711 32.3069 12.419 31.6983 12.419 31.0509C12.419 30.4035 12.6711 29.7948 13.1288 29.3371L19.0245 23.4414C19.4821 22.9851 20.0897 22.7337 20.7361 22.7337C21.3836 22.7337 21.9926 22.9858 22.4503 23.4434C23.395 24.3886 23.395 25.9263 22.4502 26.8713Z" fill="#84C4FF"/>
</g>
<defs>
<clipPath id="clip0_893_984">
<rect width="40" height="40" fill="white"/>
</clipPath>
</defs>
</svg>
