<?xml version="1.0" encoding="UTF-8"?><!DOCTYPE svg PUBLIC "-//W3C//DTD SVG 1.1//EN" "http://www.w3.org/Graphics/SVG/1.1/DTD/svg11.dtd"><svg xmlns="http://www.w3.org/2000/svg" xmlns:xlink="http://www.w3.org/1999/xlink"><defs>
        <clipPath id="a">
            <path d="M0 0h40v40H0z"/>
        </clipPath>
    
        <clipPath id="a">
            <path d="M0 0h40v40H0z"/>
        </clipPath>
    
        <clipPath id="a">
            <path d="M0 0h40v40H0z"/>
        </clipPath>
    </defs><symbol id="icon-add" viewBox="0 0 24 24">
    <path d="M11 11V5h2v6h6v2h-6v6h-2v-6H5v-2h6z"/>
</symbol><symbol id="icon-arrow-down-3" viewBox="0 0 8 8">
    <path d="M7.764 1.656a.924.924 0 0 1 0 1.234L4.57 6.344a.764.764 0 0 1-1.14 0L.236 2.89A.91.91 0 0 1 0 2.273c0-.223.079-.447.236-.617a.764.764 0 0 1 1.141 0L3.193 3.62 4 4.516l.807-.896 1.816-1.964a.764.764 0 0 1 1.14 0z"/>
</symbol><symbol id="icon-arrow" viewBox="0 0 24 24">
    <path d="M16.172 11l-5.364-5.364 1.414-1.414L20 12l-7.778 7.778-1.414-1.414L16.172 13H4v-2h12.172z"/>
</symbol><symbol id="icon-bagpipes" viewBox="0 0 40 40">
    <path d="M5.86 7.11H1.171a1.171 1.171 0 1 0 0 2.343h1.172v4.688h2.344V9.453h1.171a1.171 1.171 0 1 0 0-2.344z"/>
    <path d="M36.484 14.14h-1.172V9.238a3.51 3.51 0 0 0 2.344-3.3 3.52 3.52 0 0 0-3.515-3.515 3.52 3.52 0 0 0-3.516 3.515 3.51 3.51 0 0 0 2.344 3.3v4.904h-1.172a1.171 1.171 0 1 0 0 2.343h1.172v2.344h2.343v-2.344h1.172a1.171 1.171 0 1 0 0-2.343z"/>
    <path d="M37.656 21.172H8.203a2.347 2.347 0 0 1-2.344-2.344v-1.172c0-.647-.524-1.172-1.171-1.172H2.344c-.648 0-1.172.524-1.172 1.172v1.172a7.039 7.039 0 0 0 7.031 7.031h3.883c1.118 6.649 6.885 11.72 13.851 11.72C33.705 37.578 40 31.281 40 23.515a2.344 2.344 0 0 0-2.344-2.344z"/>
    <path d="M27.11 14.14h-1.172V9.238a3.51 3.51 0 0 0 2.343-3.3 3.52 3.52 0 0 0-3.515-3.515 3.52 3.52 0 0 0-3.516 3.515 3.51 3.51 0 0 0 2.344 3.3v4.904h-1.172a1.171 1.171 0 1 0 0 2.343h1.172v2.344h2.343v-2.344h1.172a1.171 1.171 0 1 0 0-2.343z"/>
    <path d="M17.734 14.14h-1.172V9.238a3.51 3.51 0 0 0 2.344-3.3 3.52 3.52 0 0 0-3.515-3.515 3.52 3.52 0 0 0-3.516 3.515 3.51 3.51 0 0 0 2.344 3.3v4.904h-1.172a1.171 1.171 0 1 0 0 2.343h1.172v2.344h2.344v-2.344h1.171a1.171 1.171 0 1 0 0-2.343z"/>
</symbol><symbol id="icon-chat" viewBox="0 0 24 24">
    <path d="M10 3h4a8 8 0 0 1 0 16v3.5c-5-2-12-5-12-11.5a8 8 0 0 1 8-8zm2 14h2a6 6 0 0 0 0-12h-4a6 6 0 0 0-6 6c0 3.61 2.462 5.966 8 8.48V17z"/>
</symbol><symbol id="icon-clock" viewBox="0 0 24 24">
    <path d="M12 22C6.477 22 2 17.523 2 12S6.477 2 12 2s10 4.477 10 10-4.477 10-10 10zm0-2a8 8 0 1 0 0-16 8 8 0 0 0 0 16zm1-8h4v2h-6V7h2v5z"/>
</symbol><symbol id="icon-confetti-1" viewBox="0 0 102 102">
    <path d="M.088 17.06L11.402 5.745l84.853 84.852-11.314 11.314z"/>
    <path d="M6.452 11.402L17.059.796l84.145 84.145-10.606 10.607z"/>
</symbol><symbol id="icon-dj-mixer" viewBox="0 0 40 40">
    <path d="M36.484 6.527H3.516A3.52 3.52 0 0 0 0 10.042v19.915a3.52 3.52 0 0 0 3.516 3.516h32.968A3.52 3.52 0 0 0 40 29.957V10.042a3.52 3.52 0 0 0-3.516-3.515zm-23.017 22.42c-4.933 0-8.946-4.014-8.946-8.947 0-4.933 4.013-8.946 8.946-8.946s8.946 4.013 8.946 8.946-4.013 8.946-8.946 8.946zm13.475-12.28v9.954a1.172 1.172 0 0 1-2.343 0v-9.955a1.172 1.172 0 0 1 0-2.16v-.868a1.172 1.172 0 0 1 2.343 0v.868a1.172 1.172 0 0 1 0 2.16zm4.255 8.514v1.44a1.172 1.172 0 0 1-2.344 0v-1.44a1.172 1.172 0 0 1 0-2.16v-9.383a1.172 1.172 0 0 1 2.344 0v9.383a1.172 1.172 0 0 1 0 2.16zm4.255-8.515v9.955a1.172 1.172 0 0 1-2.344 0v-9.955a1.172 1.172 0 0 1 0-2.16v-.868a1.172 1.172 0 0 1 2.344 0v.868a1.172 1.172 0 0 1 0 2.16z"/>
    <path d="M13.467 16.618A3.386 3.386 0 0 0 10.085 20a3.386 3.386 0 0 0 3.382 3.382A3.386 3.386 0 0 0 16.85 20a3.386 3.386 0 0 0-3.383-3.382zm0 4.42a1.04 1.04 0 0 1 0-2.076 1.04 1.04 0 0 1 0 2.077z"/>
</symbol><symbol id="icon-email" viewBox="0 0 24 24">
    <path d="M3 3h18a1 1 0 0 1 1 1v16a1 1 0 0 1-1 1H3a1 1 0 0 1-1-1V4a1 1 0 0 1 1-1zm9.06 8.683L5.648 6.238 4.353 7.762l7.72 6.555 7.581-6.56-1.308-1.513-6.285 5.439h-.001z"/>
</symbol><symbol id="icon-facebook" viewBox="0 0 30 30">
    <path d="M17.5 16.875h3.125l1.25-5H17.5v-2.5c0-1.287 0-2.5 2.5-2.5h1.875v-4.2c-.407-.054-1.946-.175-3.571-.175-3.394 0-5.804 2.071-5.804 5.875v3.5H8.75v5h3.75V27.5h5V16.875z"/>
</symbol><symbol id="icon-guitar" viewBox="0 0 40 40">
    <g clip-path="url(#a)">
        <path d="M23.884 12.782l1.637-1.637 3.381 3.381-1.637 1.637-3.381-3.381z"/>
        <path d="M20.61 16.056l1.637-1.637 3.38 3.381-1.636 1.637-3.382-3.381z"/>
        <path d="M29.463 5.19a.385.385 0 0 0-.19.498l.015.036.393 1.268c-.021.019-.042.037-.062.058l-2.456 2.456 3.381 3.381 2.457-2.456c.027-.027.053-.055.078-.084l1.27.393c.181.057.38-.03.462-.203 1.593-3.348 4.825-4.9 4.966-4.967a.388.388 0 0 0 .182-.525l-1.627-3.199a.382.382 0 0 0-.17-.169L35.01.074l-.027-.017a.385.385 0 0 0-.552.167c-.016.033-1.587 3.356-4.968 4.966z"/>
        <path d="M20.88 30.237a1.43 1.43 0 0 1 1.075-1.49 6.537 6.537 0 0 0 4.506-3.883 1.157 1.157 0 0 0-1.548-1.492c-1.177.53-2.766.24-4.165-.688l1.61-1.61-3.382-3.382-1.02 1.02c-.224-1.12-.024-2.174.657-2.855.196-.196.427-.356.685-.478a1.158 1.158 0 0 0-.235-2.177 6.529 6.529 0 0 0-6.076 1.728 6.537 6.537 0 0 0-1.755 3.113c-.16.665-.787 1.117-1.49 1.075a9.355 9.355 0 0 0-7.173 2.71c-3.425 3.426-3.425 9 0 12.425l3.178 3.178c3.426 3.426 9 3.426 12.425 0a9.352 9.352 0 0 0 2.709-7.194zm-9.042.366l-2.44-2.44a1.158 1.158 0 0 1 1.637-1.638l2.44 2.44a1.158 1.158 0 0 1-1.637 1.638zm3.66-3.66l-2.44-2.44a1.158 1.158 0 1 1 1.637-1.638l2.44 2.44a1.158 1.158 0 0 1-1.637 1.637z"/>
    </g>
    
</symbol><symbol id="icon-heart" viewBox="0 0 24 24">
    <path d="M12.001 4.529a5.998 5.998 0 0 1 8.242.228 6 6 0 0 1 .236 8.236l-8.48 8.492-8.478-8.492a6 6 0 0 1 8.48-8.464zm6.826 1.641a3.998 3.998 0 0 0-5.49-.153l-1.335 1.198-1.336-1.197a3.999 3.999 0 0 0-5.494.154 4 4 0 0 0-.192 5.451L12 18.654l7.02-7.03a4 4 0 0 0-.193-5.454z"/>
</symbol><symbol id="icon-instagram" viewBox="0 0 30 30">
    <path d="M15 2.5c3.396 0 3.82.013 5.152.075 1.332.063 2.238.271 3.035.581.825.318 1.52.748 2.215 1.442a6.137 6.137 0 0 1 1.442 2.215c.308.796.518 1.703.581 3.035.059 1.332.075 1.756.075 5.152s-.012 3.82-.075 5.152c-.063 1.332-.273 2.238-.581 3.035a6.105 6.105 0 0 1-1.442 2.215 6.144 6.144 0 0 1-2.215 1.442c-.796.308-1.703.518-3.035.581-1.332.059-1.756.075-5.152.075s-3.82-.012-5.152-.075c-1.332-.063-2.238-.273-3.036-.581a6.113 6.113 0 0 1-2.215-1.442 6.13 6.13 0 0 1-1.44-2.215c-.31-.796-.52-1.703-.582-3.035C2.516 18.82 2.5 18.396 2.5 15s.013-3.82.075-5.152c.063-1.333.271-2.238.581-3.036a6.1 6.1 0 0 1 1.442-2.215 6.121 6.121 0 0 1 2.215-1.44c.797-.31 1.702-.52 3.035-.582C11.18 2.516 11.604 2.5 15 2.5zm0 6.25a6.25 6.25 0 1 0 0 12.5 6.25 6.25 0 0 0 0-12.5zm8.125-.313a1.563 1.563 0 1 0-3.125 0 1.563 1.563 0 0 0 3.125 0zM15 11.25a3.75 3.75 0 1 1 0 7.5 3.75 3.75 0 0 1 0-7.5z"/>
</symbol><symbol id="icon-linkedin" viewBox="0 0 30 30">
    <path d="M22.919 22.924h-3.332v-5.221c0-1.245-.024-2.848-1.737-2.848-1.736 0-2.001 1.355-2.001 2.756v5.313h-3.333V12.188h3.2v1.462h.044c.447-.843 1.535-1.734 3.16-1.734 3.375 0 4 2.223 4 5.114v5.894h-.001zM8.754 10.719a1.933 1.933 0 0 1-1.608-3.011 1.935 1.935 0 1 1 1.606 3.01h.002zm1.67 12.205H7.083V12.188h3.342v10.736h-.001zM24.587 3.75H5.412c-.92 0-1.661.725-1.661 1.621V24.63c0 .896.742 1.621 1.66 1.621h19.172c.918 0 1.668-.725 1.668-1.621V5.37c0-.896-.75-1.621-1.668-1.621h.006z"/>
</symbol><symbol id="icon-live-camera" viewBox="0 0 24 24">
    <path d="M16 4a1 1 0 0 1 1 1v4.2l5.213-3.65a.5.5 0 0 1 .787.41v12.08a.5.5 0 0 1-.787.41L17 14.8V19a1 1 0 0 1-1 1H2a1 1 0 0 1-1-1V5a1 1 0 0 1 1-1h14zm-1 2H3v12h12V6zM7.4 8.829a.4.4 0 0 1 .215.062l4.355 2.772a.4.4 0 0 1 0 .674L7.615 15.11A.4.4 0 0 1 7 14.77V9.23a.4.4 0 0 1 .4-.4v-.001zM21 8.84l-4 2.8v.718l4 2.8V8.84z"/>
</symbol><symbol id="icon-logo" viewBox="0 0 125 30">
    <path d="M35.128 3.838l-5.092 25.83h-6.753l2.657-13.616-8.598 11.07h-3.21l-4.686-11.07-2.73 13.616H0l5.166-25.83h5.94l6.052 14.944L28.892 3.838h6.236z"/>
    <path d="M59.89 9.668l-3.984 20h-6.642l.406-2.066a8.397 8.397 0 0 1-2.915 1.808 9.343 9.343 0 0 1-3.284.59c-2.19 0-3.936-.59-5.24-1.771-1.28-1.181-1.919-2.866-1.919-5.056 0-.811.086-1.635.259-2.472l2.213-11.033h7.011L43.73 20.037a6.62 6.62 0 0 0-.148 1.365c0 1.747.898 2.62 2.694 2.62 1.205 0 2.202-.369 2.989-1.107.787-.762 1.328-1.882 1.623-3.358l1.993-9.89h7.01z"/>
    <path d="M68.244 30c-1.722 0-3.383-.184-4.981-.553-1.575-.37-2.805-.837-3.69-1.403l2.546-4.907c.91.565 1.992 1.02 3.247 1.365 1.254.32 2.484.48 3.69.48 2.14 0 3.21-.48 3.21-1.44 0-.393-.259-.676-.775-.848-.492-.197-1.291-.382-2.398-.554-1.477-.27-2.694-.553-3.654-.849a6.188 6.188 0 0 1-2.472-1.586c-.713-.738-1.07-1.771-1.07-3.1 0-2.312.984-4.096 2.952-5.35 1.993-1.28 4.563-1.92 7.712-1.92 1.427 0 2.804.148 4.133.444 1.328.27 2.484.652 3.468 1.143L77.69 15.83c-1.673-1.008-3.653-1.513-5.94-1.513-1.083 0-1.895.148-2.436.443-.517.27-.775.627-.775 1.07 0 .394.246.69.738.886.517.172 1.353.369 2.51.59 1.426.246 2.607.53 3.541.849.96.32 1.784.849 2.473 1.587.713.738 1.07 1.746 1.07 3.025 0 2.313-.997 4.096-2.99 5.351C73.89 29.373 71.344 30 68.245 30z"/>
    <path d="M84.585 9.668h6.974l-3.985 20H80.6l3.985-20zm4.465-2.214c-1.205 0-2.177-.332-2.915-.996-.738-.665-1.107-1.489-1.107-2.473 0-1.156.406-2.103 1.218-2.841C87.082.38 88.176 0 89.53 0c1.23 0 2.214.32 2.952.96.738.614 1.107 1.414 1.107 2.398 0 1.205-.418 2.19-1.255 2.952-.836.763-1.93 1.144-3.284 1.144z"/>
    <path d="M108.404 18.524l6.716 11.144h-8.191l-4.096-6.827-2.878 2.51-.849 4.317h-7.01l5.46-27.38h7.011l-2.841 14.206 8.081-6.826h8.855l-10.258 8.856z"/>
    <path d="M120.535 30c-1.156 0-2.115-.357-2.878-1.07-.738-.738-1.107-1.66-1.107-2.768 0-1.328.431-2.398 1.292-3.21.885-.836 1.955-1.255 3.21-1.255 1.181 0 2.128.357 2.841 1.07.738.69 1.107 1.612 1.107 2.768 0 1.304-.443 2.374-1.328 3.21-.861.837-1.907 1.255-3.137 1.255z"/>
</symbol><symbol id="icon-map-pin" viewBox="0 0 24 24">
    <path d="M18.364 17.364L12 23.728l-6.364-6.364a9 9 0 1 1 12.728 0zM12 13a2 2 0 1 0 0-4 2 2 0 0 0 0 4z"/>
</symbol><symbol id="icon-phone" viewBox="0 0 24 24">
    <path d="M21 16.42v3.536a1 1 0 0 1-.93.998c-.437.03-.794.046-1.07.046-8.837 0-16-7.163-16-16 0-.276.015-.633.046-1.07A1 1 0 0 1 4.044 3H7.58a.5.5 0 0 1 .498.45c.023.23.044.413.064.552A13.9 13.9 0 0 0 9.35 8.003c.095.2.033.439-.147.567l-2.158 1.542a13.047 13.047 0 0 0 6.844 6.844l1.54-2.154a.462.462 0 0 1 .573-.149 13.9 13.9 0 0 0 4 1.205c.139.02.322.042.55.064a.5.5 0 0 1 .449.498H21z"/>
</symbol><symbol id="icon-play" viewBox="0 0 56 56">
    <path d="M28 51.333C15.113 51.333 4.666 40.887 4.666 28 4.666 15.113 15.113 4.667 28 4.667S51.333 15.113 51.333 28c0 12.887-10.446 23.333-23.333 23.333zm0-4.666a18.667 18.667 0 1 0 0-37.334 18.667 18.667 0 0 0 0 37.334zm-3.215-27.032l11.384 7.588a.934.934 0 0 1 0 1.554l-11.387 7.588a.933.933 0 0 1-1.449-.775V20.41a.934.934 0 0 1 1.452-.775z"/>
</symbol><symbol id="icon-quotes" viewBox="0 0 30 30">
    <path d="M5.729 21.651c-1.288-1.367-1.979-2.9-1.979-5.387 0-4.375 3.071-8.296 7.537-10.235l1.117 1.722c-4.169 2.255-4.984 5.182-5.309 7.027.671-.348 1.55-.47 2.411-.39 2.255.21 4.033 2.06 4.033 4.362a4.375 4.375 0 0 1-4.375 4.375 4.839 4.839 0 0 1-3.435-1.474zm12.5 0c-1.288-1.367-1.979-2.9-1.979-5.387 0-4.375 3.071-8.296 7.538-10.235l1.116 1.722c-4.169 2.255-4.984 5.182-5.309 7.027.671-.348 1.55-.47 2.411-.39 2.255.21 4.033 2.06 4.033 4.362a4.375 4.375 0 0 1-4.375 4.375 4.838 4.838 0 0 1-3.435-1.474z"/>
</symbol><symbol id="icon-saxophone" viewBox="0 0 40 40">
    <g clip-path="url(#a)">
        <path d="M37.656 14.141H25.859a2.344 2.344 0 1 0 0 4.687h11.797a2.344 2.344 0 1 0 0-4.687z"/>
        <path d="M37.656 21.172H25.859v3.42a3.613 3.613 0 0 1-3.606 3.611c-1.713 0-3.2-1.217-3.531-2.87L14.946 5.084A6.333 6.333 0 0 0 7.116.208C4.354.92 2.423 3.524 2.423 6.544v5.254h-1.25a1.171 1.171 0 1 0 0 2.344h4.766c.647 0 1.172-.525 1.172-1.172V8.204a1.172 1.172 0 1 1 2.343 0V16.485H8.282a1.171 1.171 0 1 0 0 2.344h1.171v2.343H8.282a1.171 1.171 0 1 0 0 2.344h1.171v2.344H8.282a1.171 1.171 0 1 0 0 2.344h1.382C10.782 34.852 16.55 40 23.515 40h.021l.411-.007c7.516-.224 13.709-6.87 13.709-14.722v-4.099z"/>
    </g>
    
</symbol><symbol id="icon-trumpet" viewBox="0 0 40 40">
    <g clip-path="url(#a)">
        <path d="M39.489 12.298L27.702.511a1.744 1.744 0 0 0-2.971 1.1l-.933 12.125-6.009 6.01-1.714-1.715a1.744 1.744 0 0 0-2.465 2.466l1.714 1.714-3.428 3.427-1.714-1.713a1.743 1.743 0 1 0-2.466 2.465l1.714 1.714-6.214 6.214-.24-.24A1.744 1.744 0 0 0 .51 36.543l1.474 1.474 1.473 1.473c.34.34.787.51 1.233.51a1.743 1.743 0 0 0 1.233-2.976l-.241-.24 3.634-3.634c.292.772.746 1.48 1.347 2.08a5.873 5.873 0 0 0 4.18 1.732 5.872 5.872 0 0 0 4.179-1.732l5.894-5.893a5.918 5.918 0 0 0-2.08-9.707l3.428-3.428 12.126-.933a1.743 1.743 0 0 0 1.099-2.97zM22.45 26.871l-5.894 5.894a2.407 2.407 0 0 1-1.713.71 2.408 2.408 0 0 1-1.714-.71 2.408 2.408 0 0 1-.71-1.714c0-.647.252-1.256.71-1.714l5.896-5.896a2.408 2.408 0 0 1 1.711-.707c.648 0 1.257.252 1.714.71a2.427 2.427 0 0 1 0 3.427z"/>
    </g>
    
</symbol><symbol id="icon-twitter" viewBox="0 0 30 30">
    <path d="M27.702 7.07c-.954.422-1.966.7-3.002.823A5.245 5.245 0 0 0 27 5a10.448 10.448 0 0 1-3.32 1.269 5.228 5.228 0 0 0-8.908 4.767A14.842 14.842 0 0 1 3.997 5.574a5.21 5.21 0 0 0-.707 2.629c0 1.812.922 3.413 2.325 4.35a5.21 5.21 0 0 1-2.368-.653v.065a5.231 5.231 0 0 0 4.194 5.126c-.77.21-1.578.24-2.362.09a5.231 5.231 0 0 0 4.883 3.632 10.494 10.494 0 0 1-7.738 2.165 14.789 14.789 0 0 0 8.012 2.35c9.616 0 14.875-7.967 14.875-14.875 0-.225-.006-.453-.016-.675a10.619 10.619 0 0 0 2.609-2.707h-.002z"/>
</symbol></svg>